<svg width="107" height="81" viewBox="0 0 107 81" fill="none" xmlns="http://www.w3.org/2000/svg">
<g clip-path="url(#clip0_12_6)">
<rect width="107" height="81" fill="#040406"/>
<mask id="path-2-inside-1_12_6" fill="white">
<path fill-rule="evenodd" clip-rule="evenodd" d="M54 64C76.0914 64 94 46.0914 94 24V24C94 17.9596 98.3144 12 104.355 12H271C280.941 12 289 20.0589 289 30V561C289 570.941 280.941 579 271 579H-163C-172.941 579 -181 570.941 -181 561V30C-181 20.0589 -172.941 12 -163 12H3.64525C9.68563 12 14 17.9596 14 24V24C14 46.0914 31.9086 64 54 64Z"/>
</mask>
<path fill-rule="evenodd" clip-rule="evenodd" d="M54 64C76.0914 64 94 46.0914 94 24V24C94 17.9596 98.3144 12 104.355 12H271C280.941 12 289 20.0589 289 30V561C289 570.941 280.941 579 271 579H-163C-172.941 579 -181 570.941 -181 561V30C-181 20.0589 -172.941 12 -163 12H3.64525C9.68563 12 14 17.9596 14 24V24C14 46.0914 31.9086 64 54 64Z" fill="#0B0819"/>
<path d="M93 24C93 45.5391 75.5391 63 54 63V65C76.6437 65 95 46.6437 95 24H93ZM104.355 13H271V11H104.355V13ZM288 30V561H290V30H288ZM271 578H-163V580H271V578ZM-180 561V30H-182V561H-180ZM-163 13H3.64525V11H-163V13ZM54 63C32.4609 63 15 45.5391 15 24H13C13 46.6437 31.3563 65 54 65V63ZM3.64525 13C8.95367 13 13 18.3132 13 24H15C15 17.606 10.4176 11 3.64525 11V13ZM-180 30C-180 20.6112 -172.389 13 -163 13V11C-173.493 11 -182 19.5066 -182 30H-180ZM-163 578C-172.389 578 -180 570.389 -180 561H-182C-182 571.493 -173.493 580 -163 580V578ZM288 561C288 570.389 280.389 578 271 578V580C281.493 580 290 571.493 290 561H288ZM271 13C280.389 13 288 20.6112 288 30H290C290 19.5066 281.493 11 271 11V13ZM95 24C95 18.3132 99.0463 13 104.355 13V11C97.5824 11 93 17.606 93 24H95Z" fill="url(#paint0_linear_12_6)" mask="url(#path-2-inside-1_12_6)"/>
</g>
<defs>
<linearGradient id="paint0_linear_12_6" x1="54" y1="12" x2="54" y2="579" gradientUnits="userSpaceOnUse">
<stop stop-color="#46425E"/>
<stop offset="1" stop-opacity="0"/>
</linearGradient>
<clipPath id="clip0_12_6">
<rect width="107" height="81" fill="white"/>
</clipPath>
</defs>
</svg>
